<mxfile host="app.diagrams.net" modified="2021-10-30T06:56:09.500Z" agent="5.0 (Windows NT 10.0; Win64; x64) AppleWebKit/537.36 (KHTML, like Gecko) Chrome/94.0.4606.71 Safari/537.36" etag="sgZ6-DJKRGwo-a8DKN2I" version="15.5.6" type="github">
  <diagram id="8TluMbjEGHsbO3QmX9A_" name="Page-1">
    <mxGraphModel dx="782" dy="650" grid="1" gridSize="10" guides="1" tooltips="1" connect="1" arrows="1" fold="1" page="1" pageScale="1" pageWidth="827" pageHeight="1169" math="0" shadow="0">
      <root>
        <mxCell id="0" />
        <mxCell id="1" parent="0" />
        <mxCell id="As5ZXuYs0tuk9X4lPeDS-1" value="Origi data" style="shape=cylinder3;whiteSpace=wrap;html=1;boundedLbl=1;backgroundOutline=1;size=15;fillColor=#FFD966;" parent="1" vertex="1">
          <mxGeometry x="190" y="100" width="130" height="80" as="geometry" />
        </mxCell>
        <mxCell id="As5ZXuYs0tuk9X4lPeDS-2" value="&lt;span style=&quot;font-size: 14px&quot;&gt;&lt;b&gt;EdP-GOLD&lt;/b&gt;&lt;/span&gt;" style="shape=cylinder3;whiteSpace=wrap;html=1;boundedLbl=1;backgroundOutline=1;size=15;fillColor=#FFD966;" parent="1" vertex="1">
          <mxGeometry x="190" y="100" width="130" height="80" as="geometry" />
        </mxCell>
        <mxCell id="As5ZXuYs0tuk9X4lPeDS-3" value="&lt;span style=&quot;font-size: 14px&quot;&gt;&lt;b&gt;EdP-AUTO&lt;/b&gt;&lt;/span&gt;" style="shape=cylinder3;whiteSpace=wrap;html=1;boundedLbl=1;backgroundOutline=1;size=15;fillColor=#FFD966;" parent="1" vertex="1">
          <mxGeometry x="460" y="100" width="130" height="80" as="geometry" />
        </mxCell>
        <mxCell id="As5ZXuYs0tuk9X4lPeDS-4" value="" style="rounded=1;whiteSpace=wrap;html=1;fillColor=#CDA2BE;" parent="1" vertex="1">
          <mxGeometry x="200" y="320" width="110" height="40" as="geometry" />
        </mxCell>
        <mxCell id="As5ZXuYs0tuk9X4lPeDS-5" value="&lt;b&gt;&lt;font style=&quot;font-size: 14px&quot;&gt;CN to EN&lt;/font&gt;&lt;/b&gt;" style="text;html=1;strokeColor=none;fillColor=none;align=center;verticalAlign=middle;whiteSpace=wrap;rounded=0;" parent="1" vertex="1">
          <mxGeometry x="210" y="320" width="90" height="40" as="geometry" />
        </mxCell>
        <mxCell id="As5ZXuYs0tuk9X4lPeDS-6" value="" style="rounded=1;whiteSpace=wrap;html=1;fillColor=#CDA2BE;" parent="1" vertex="1">
          <mxGeometry x="470" y="320" width="110" height="40" as="geometry" />
        </mxCell>
        <mxCell id="As5ZXuYs0tuk9X4lPeDS-7" value="&lt;b&gt;&lt;font style=&quot;font-size: 14px&quot;&gt;EN to CN&lt;/font&gt;&lt;/b&gt;" style="text;html=1;strokeColor=none;fillColor=none;align=center;verticalAlign=middle;whiteSpace=wrap;rounded=0;" parent="1" vertex="1">
          <mxGeometry x="480" y="320" width="90" height="40" as="geometry" />
        </mxCell>
        <mxCell id="As5ZXuYs0tuk9X4lPeDS-8" value="" style="endArrow=classic;html=1;exitX=0.5;exitY=1;exitDx=0;exitDy=0;exitPerimeter=0;entryX=0.5;entryY=0;entryDx=0;entryDy=0;" parent="1" source="As5ZXuYs0tuk9X4lPeDS-2" target="As5ZXuYs0tuk9X4lPeDS-5" edge="1">
          <mxGeometry width="50" height="50" relative="1" as="geometry">
            <mxPoint x="370" y="240" as="sourcePoint" />
            <mxPoint x="420" y="190" as="targetPoint" />
          </mxGeometry>
        </mxCell>
        <mxCell id="As5ZXuYs0tuk9X4lPeDS-9" value="" style="endArrow=classic;html=1;exitX=1;exitY=0.5;exitDx=0;exitDy=0;entryX=0;entryY=0.5;entryDx=0;entryDy=0;" parent="1" source="As5ZXuYs0tuk9X4lPeDS-4" target="As5ZXuYs0tuk9X4lPeDS-6" edge="1">
          <mxGeometry width="50" height="50" relative="1" as="geometry">
            <mxPoint x="370" y="240" as="sourcePoint" />
            <mxPoint x="420" y="190" as="targetPoint" />
          </mxGeometry>
        </mxCell>
        <mxCell id="As5ZXuYs0tuk9X4lPeDS-10" value="" style="rounded=1;whiteSpace=wrap;html=1;fillColor=#CDA2BE;" parent="1" vertex="1">
          <mxGeometry x="465" y="220" width="120" height="60" as="geometry" />
        </mxCell>
        <mxCell id="As5ZXuYs0tuk9X4lPeDS-11" value="&lt;font style=&quot;font-size: 14px&quot;&gt;&lt;b&gt;Trigger alignment&lt;/b&gt;&lt;/font&gt;" style="text;html=1;strokeColor=none;fillColor=none;align=center;verticalAlign=middle;whiteSpace=wrap;rounded=0;" parent="1" vertex="1">
          <mxGeometry x="480" y="230" width="90" height="40" as="geometry" />
        </mxCell>
        <mxCell id="As5ZXuYs0tuk9X4lPeDS-12" value="" style="endArrow=classic;html=1;exitX=0.5;exitY=0;exitDx=0;exitDy=0;entryX=0.5;entryY=1;entryDx=0;entryDy=0;" parent="1" source="As5ZXuYs0tuk9X4lPeDS-7" target="As5ZXuYs0tuk9X4lPeDS-10" edge="1">
          <mxGeometry width="50" height="50" relative="1" as="geometry">
            <mxPoint x="370" y="220" as="sourcePoint" />
            <mxPoint x="420" y="170" as="targetPoint" />
          </mxGeometry>
        </mxCell>
        <mxCell id="As5ZXuYs0tuk9X4lPeDS-13" value="" style="endArrow=classic;html=1;exitX=0.5;exitY=0;exitDx=0;exitDy=0;entryX=0.5;entryY=1;entryDx=0;entryDy=0;entryPerimeter=0;" parent="1" source="As5ZXuYs0tuk9X4lPeDS-10" target="As5ZXuYs0tuk9X4lPeDS-3" edge="1">
          <mxGeometry width="50" height="50" relative="1" as="geometry">
            <mxPoint x="370" y="220" as="sourcePoint" />
            <mxPoint x="420" y="170" as="targetPoint" />
          </mxGeometry>
        </mxCell>
        <mxCell id="As5ZXuYs0tuk9X4lPeDS-16" value="" style="curved=1;endArrow=classic;html=1;" parent="1" edge="1">
          <mxGeometry width="50" height="50" relative="1" as="geometry">
            <mxPoint x="254" y="180" as="sourcePoint" />
            <mxPoint x="464" y="250" as="targetPoint" />
            <Array as="points">
              <mxPoint x="334" y="240" />
            </Array>
          </mxGeometry>
        </mxCell>
        <mxCell id="As5ZXuYs0tuk9X4lPeDS-17" value="&lt;font style=&quot;font-size: 14px&quot;&gt;&lt;b&gt;Back-translation&lt;/b&gt;&lt;/font&gt;" style="text;html=1;strokeColor=none;fillColor=none;align=center;verticalAlign=middle;whiteSpace=wrap;rounded=0;" parent="1" vertex="1">
          <mxGeometry x="320" y="301" width="130" height="20" as="geometry" />
        </mxCell>
        <mxCell id="MnsmhwfLCpIghhpC0tvz-4" value="" style="endArrow=none;dashed=1;html=1;dashPattern=1 3;strokeWidth=2;" edge="1" parent="1">
          <mxGeometry width="50" height="50" relative="1" as="geometry">
            <mxPoint x="190" y="300.5" as="sourcePoint" />
            <mxPoint x="590" y="300.5" as="targetPoint" />
          </mxGeometry>
        </mxCell>
        <mxCell id="MnsmhwfLCpIghhpC0tvz-5" value="" style="endArrow=none;dashed=1;html=1;dashPattern=1 3;strokeWidth=2;" edge="1" parent="1">
          <mxGeometry width="50" height="50" relative="1" as="geometry">
            <mxPoint x="190" y="308.5" as="sourcePoint" />
            <mxPoint x="190" y="378.5" as="targetPoint" />
          </mxGeometry>
        </mxCell>
        <mxCell id="MnsmhwfLCpIghhpC0tvz-6" value="" style="endArrow=none;dashed=1;html=1;dashPattern=1 3;strokeWidth=2;" edge="1" parent="1">
          <mxGeometry width="50" height="50" relative="1" as="geometry">
            <mxPoint x="190" y="381.5" as="sourcePoint" />
            <mxPoint x="590" y="381.5" as="targetPoint" />
          </mxGeometry>
        </mxCell>
        <mxCell id="MnsmhwfLCpIghhpC0tvz-7" value="" style="endArrow=none;dashed=1;html=1;dashPattern=1 3;strokeWidth=2;" edge="1" parent="1">
          <mxGeometry width="50" height="50" relative="1" as="geometry">
            <mxPoint x="590" y="381.5" as="sourcePoint" />
            <mxPoint x="590" y="297.5" as="targetPoint" />
          </mxGeometry>
        </mxCell>
      </root>
    </mxGraphModel>
  </diagram>
</mxfile>
